<svg width="24" height="24" viewBox="0 0 24 24" fill="none" xmlns="http://www.w3.org/2000/svg">
<g id="carbon:location">
<path id="Vector" d="M12.0004 7.125H12C11.4808 7.125 10.9733 7.27896 10.5416 7.56739C10.11 7.85583 9.7735 8.2658 9.57482 8.74546C9.37614 9.22511 9.32415 9.75291 9.42544 10.2621C9.52673 10.7713 9.77673 11.239 10.1438 11.6062C10.511 11.9733 10.9787 12.2233 11.4879 12.3246C11.9971 12.4258 12.5249 12.3739 13.0045 12.1752C13.4842 11.9765 13.8942 11.6401 14.1826 11.2084C14.471 10.7767 14.625 10.2692 14.625 9.75V9.74963C14.6243 9.05375 14.3476 8.38657 13.8555 7.8945C13.3634 7.40244 12.6963 7.1257 12.0004 7.125ZM11.9999 13.125C11.3324 13.125 10.6799 12.927 10.125 12.5562C9.56994 12.1854 9.13735 11.6583 8.88191 11.0416C8.62646 10.4249 8.55963 9.74626 8.68985 9.09157C8.82008 8.43689 9.14151 7.83552 9.61352 7.36352C10.0855 6.89151 10.6869 6.57008 11.3416 6.43985C11.9963 6.30963 12.6749 6.37646 13.2916 6.63191C13.9083 6.88735 14.4354 7.31994 14.8062 7.87495C15.177 8.42995 15.375 9.08244 15.375 9.74993C15.3738 10.6447 15.0179 11.5025 14.3852 12.1352C13.7525 12.7679 12.8947 13.1238 11.9999 13.125Z" fill="black" stroke="black" stroke-width="0.75"/>
<path id="Vector_2" d="M6.42291 14.1713L6.31036 14.023C5.37704 12.794 4.87339 11.2928 4.87501 9.7498M6.42291 14.1713L19.125 9.74955C19.1249 7.86005 18.3742 6.04796 17.0381 4.71186C15.7019 3.37567 13.8897 2.625 12 2.625C10.1103 2.625 8.29807 3.37567 6.96187 4.71186C5.62572 6.04801 4.87506 7.8602 4.87501 9.7498M6.42291 14.1713H6.42383M6.42291 14.1713H6.42383M4.87501 9.7498C4.87501 9.74973 4.87501 9.74966 4.87501 9.7496L5.25001 9.75H4.87501C4.87501 9.74993 4.87501 9.74987 4.87501 9.7498ZM6.42383 14.1713C6.46581 14.2264 6.51135 14.286 6.53186 14.3115L6.53176 14.3116L6.53823 14.3193L11.714 20.4235L12 20.7609L12.286 20.4235L17.4685 14.311L17.4687 14.3111L17.4753 14.3028C17.4957 14.2773 17.5517 14.2036 17.5979 14.1428L17.6623 14.0578L17.6749 14.0412L17.6749 14.0412L17.6905 14.0207C18.6228 12.7923 19.1267 11.2921 19.125 9.75L6.42383 14.1713ZM5.71075 14.4733L5.71069 14.4733C4.67955 13.115 4.12251 11.4559 4.12501 9.75055V9.75C4.12501 7.66142 4.95469 5.65838 6.43154 4.18153C7.90839 2.70469 9.91143 1.875 12 1.875C14.0886 1.875 16.0916 2.70469 17.5685 4.18153C19.0453 5.65838 19.875 7.66142 19.875 9.75V9.75055C19.8775 11.4551 19.3207 13.1134 18.2901 14.471L18.2526 14.5204L18.252 14.5222L18.1737 14.6245C18.1437 14.6637 18.1129 14.7037 18.0877 14.7362L18.0557 14.7771C18.0501 14.7843 18.0466 14.7886 18.0448 14.7908C18.0436 14.7923 18.0432 14.7928 18.0434 14.7926L18.0432 14.7927L12 21.9202L5.96365 14.8012C5.87848 14.6926 5.79418 14.5833 5.71075 14.4733Z" fill="black" stroke="black" stroke-width="0.75"/>
</g>
</svg>
