<svg width="101" height="82" viewBox="0 0 101 82" fill="none" xmlns="http://www.w3.org/2000/svg">
<path d="M0 0H101V82H43.5C19.4756 82 0 62.5244 0 38.5V0Z" fill="black"/>
<path d="M64.7917 50.25C63.173 50.25 61.875 51.5479 61.875 53.1666C61.875 53.9402 62.1823 54.682 62.7293 55.229C63.2763 55.776 64.0182 56.0833 64.7917 56.0833C65.5653 56.0833 66.3071 55.776 66.8541 55.229C67.4011 54.682 67.7084 53.9402 67.7084 53.1666C67.7084 52.3931 67.4011 51.6512 66.8541 51.1042C66.3071 50.5573 65.5653 50.25 64.7917 50.25ZM41.4584 26.9166V29.8333H44.375L49.625 40.902L47.6417 44.475C47.423 44.8833 47.2917 45.3645 47.2917 45.875C47.2917 46.6485 47.599 47.3904 48.146 47.9374C48.693 48.4843 49.4348 48.7916 50.2084 48.7916H67.7084V45.875H50.8209C50.7242 45.875 50.6314 45.8365 50.5631 45.7682C50.4947 45.6998 50.4563 45.6071 50.4563 45.5104C50.4563 45.4375 50.4709 45.3791 50.5 45.3354L51.8125 42.9583H62.6771C63.7709 42.9583 64.7334 42.3458 65.2292 41.4562L70.45 32.0208C70.5521 31.7875 70.625 31.5395 70.625 31.2916C70.625 30.9049 70.4714 30.5339 70.1979 30.2604C69.9244 29.9869 69.5535 29.8333 69.1667 29.8333H47.598L46.2271 26.9166M50.2084 50.25C48.5896 50.25 47.2917 51.5479 47.2917 53.1666C47.2917 53.9402 47.599 54.682 48.146 55.229C48.693 55.776 49.4348 56.0833 50.2084 56.0833C50.9819 56.0833 51.7238 55.776 52.2708 55.229C52.8177 54.682 53.125 53.9402 53.125 53.1666C53.125 52.3931 52.8177 51.6512 52.2708 51.1042C51.7238 50.5573 50.9819 50.25 50.2084 50.25Z" fill="#E4A951"/>
</svg>
