<svg width="24" height="24" viewBox="0 0 24 24" fill="none" xmlns="http://www.w3.org/2000/svg">
<path d="M14.25 21.4C13.8667 21.7833 13.3917 21.975 12.825 21.975C12.2583 21.975 11.7833 21.7833 11.4 21.4L2.60001 12.6C2.41667 12.4167 2.27067 12.2 2.16201 11.95C2.05334 11.7 1.99934 11.4333 2.00001 11.15V4C2.00001 3.45 2.19601 2.979 2.58801 2.587C2.98001 2.195 3.45067 1.99934 4.00001 2H11.15C11.4333 2 11.7 2.05434 11.95 2.163C12.2 2.27167 12.4167 2.41733 12.6 2.6L21.4 11.425C21.7833 11.8083 21.975 12.2793 21.975 12.838C21.975 13.3967 21.7833 13.8673 21.4 14.25L14.25 21.4ZM6.50001 8C6.91667 8 7.27101 7.854 7.56301 7.562C7.85501 7.27 8.00067 6.916 8.00001 6.5C8.00001 6.08333 7.85401 5.729 7.56201 5.437C7.27001 5.145 6.91601 4.99933 6.50001 5C6.08334 5 5.72901 5.146 5.43701 5.438C5.14501 5.73 4.99934 6.084 5.00001 6.5C5.00001 6.91667 5.14601 7.271 5.43801 7.563C5.73001 7.855 6.08401 8.00067 6.50001 8Z" fill="white"/>
</svg>
