<svg width="18" height="19" viewBox="0 0 18 19" fill="none" xmlns="http://www.w3.org/2000/svg">
<path d="M12.8645 11.7626H12.0515L11.7633 11.4848C12.7719 10.3115 13.3791 8.78838 13.3791 7.13143C13.3791 3.43675 10.3842 0.441895 6.68954 0.441895C2.99485 0.441895 0 3.43675 0 7.13143C0 10.8261 2.99485 13.821 6.68954 13.821C8.34648 13.821 9.86964 13.2138 11.0429 12.2052L11.3208 12.4934V13.3064L16.4666 18.4419L18 16.9084L12.8645 11.7626ZM6.68954 11.7626C4.12693 11.7626 2.05832 9.69404 2.05832 7.13143C2.05832 4.56882 4.12693 2.50021 6.68954 2.50021C9.25214 2.50021 11.3208 4.56882 11.3208 7.13143C11.3208 9.69404 9.25214 11.7626 6.68954 11.7626Z" fill="black"/>
</svg>
