<svg width="18" height="19" viewBox="0 0 18 19" fill="none" xmlns="http://www.w3.org/2000/svg">
<path d="M12.8645 11.7627H12.0515L11.7633 11.4848C12.7719 10.3115 13.3791 8.78839 13.3791 7.13145C13.3791 3.43676 10.3842 0.44191 6.68954 0.44191C2.99485 0.44191 0 3.43676 0 7.13145C0 10.8261 2.99485 13.821 6.68954 13.821C8.34648 13.821 9.86964 13.2138 11.0429 12.2052L11.3208 12.4934V13.3064L16.4666 18.4419L18 16.9085L12.8645 11.7627ZM6.68954 11.7627C4.12693 11.7627 2.05832 9.69405 2.05832 7.13145C2.05832 4.56884 4.12693 2.50023 6.68954 2.50023C9.25214 2.50023 11.3208 4.56884 11.3208 7.13145C11.3208 9.69405 9.25214 11.7627 6.68954 11.7627Z" fill="white"/>
</svg>
