<svg width="35" height="35" viewBox="0 0 35 35" fill="none" xmlns="http://www.w3.org/2000/svg">
<g id="mdi:cart">
<path id="Vector" d="M24.7917 26.25C23.173 26.25 21.875 27.5479 21.875 29.1667C21.875 29.9402 22.1823 30.6821 22.7293 31.2291C23.2763 31.776 24.0182 32.0833 24.7917 32.0833C25.5653 32.0833 26.3071 31.776 26.8541 31.2291C27.4011 30.6821 27.7084 29.9402 27.7084 29.1667C27.7084 28.3931 27.4011 27.6513 26.8541 27.1043C26.3071 26.5573 25.5653 26.25 24.7917 26.25ZM1.45837 2.91667V5.83334H4.37504L9.62504 16.9021L7.64171 20.475C7.42296 20.8833 7.29171 21.3646 7.29171 21.875C7.29171 22.6486 7.599 23.3904 8.14598 23.9374C8.69296 24.4844 9.43483 24.7917 10.2084 24.7917H27.7084V21.875H10.8209C10.7242 21.875 10.6314 21.8366 10.5631 21.7682C10.4947 21.6999 10.4563 21.6071 10.4563 21.5104C10.4563 21.4375 10.4709 21.3792 10.5 21.3354L11.8125 18.9583H22.6771C23.7709 18.9583 24.7334 18.3458 25.2292 17.4563L30.45 8.02084C30.5521 7.78751 30.625 7.53959 30.625 7.29167C30.625 6.9049 30.4714 6.53397 30.1979 6.26047C29.9244 5.98698 29.5535 5.83334 29.1667 5.83334H7.59796L6.22712 2.91667M10.2084 26.25C8.58962 26.25 7.29171 27.5479 7.29171 29.1667C7.29171 29.9402 7.599 30.6821 8.14598 31.2291C8.69296 31.776 9.43483 32.0833 10.2084 32.0833C10.9819 32.0833 11.7238 31.776 12.2708 31.2291C12.8177 30.6821 13.125 29.9402 13.125 29.1667C13.125 28.3931 12.8177 27.6513 12.2708 27.1043C11.7238 26.5573 10.9819 26.25 10.2084 26.25Z" fill="#E4A951"/>
</g>
</svg>
